<svg width="200" height="200" viewBox="0 0 200 200" fill="none" xmlns="http://www.w3.org/2000/svg">
<g clip-path="url(#clip0_2102_1259)">
<path d="M58.3333 80.5583C58.3333 74.6639 60.6749 69.0109 64.8429 64.8429C69.0109 60.6749 74.6639 58.3333 80.5583 58.3333H152.775C155.694 58.3333 158.584 58.9082 161.28 60.0251C163.977 61.142 166.427 62.7791 168.49 64.8429C170.554 66.9066 172.191 69.3567 173.308 72.0532C174.425 74.7496 175 77.6397 175 80.5583V152.775C175 155.694 174.425 158.584 173.308 161.28C172.191 163.977 170.554 166.427 168.49 168.49C166.427 170.554 163.977 172.191 161.28 173.308C158.584 174.425 155.694 175 152.775 175H80.5583C77.6397 175 74.7496 174.425 72.0532 173.308C69.3567 172.191 66.9066 170.554 64.8429 168.49C62.7791 166.427 61.142 163.977 60.0251 161.28C58.9082 158.584 58.3333 155.694 58.3333 152.775V80.5583Z" stroke="black" stroke-width="8" stroke-linecap="round" stroke-linejoin="round"/>
<path d="M33.4333 139.475C30.875 138.021 28.7471 135.917 27.2658 133.374C25.7846 130.832 25.0028 127.942 25 125V41.6667C25 32.5 32.5 25 41.6667 25H125C131.25 25 134.65 28.2083 137.5 33.3333" stroke="black" stroke-width="8" stroke-linecap="round" stroke-linejoin="round"/>
<path d="M91.6667 116.667L108.333 133.333L141.667 100" stroke="black" stroke-width="8" stroke-linecap="round" stroke-linejoin="round"/>
</g>
<defs>
<clipPath id="clip0_2102_1259">
<rect width="200" height="200" fill="white"/>
</clipPath>
</defs>
</svg>
